# xmcd CD database file
#
# Track frame offsets:
#	150
#	14503
#	33258
#	58912
#	71198
#	85779
#	99834
#	115062
#	120360
#	137825
#	161335
#
# Disc length: 2336 seconds
#
# Revision: 0
# Processed by: cddbd v1.5.1PL0 Copyright (c) Steve Scherf et al.
# Submitted via: CDex 1.51
#
DISCID=89091e0b
DTITLE=Philippe Baudoin, Daniel Huck - Happy Feet and Friends...
DYEAR=1900
DGENRE=Jazz
TTITLE0=Crossword Race
TTITLE1=Willow Weep For Me
TTITLE2=Blues De La Butte
TTITLE3=I Can't Get Started
TTITLE4=There Will Never Be Another You
TTITLE5=Impôts Locaux
TTITLE6=Seekup Mood
TTITLE7=Ack Varmeland Du Skona
TTITLE8=Speak Low
TTITLE9=Blue N3
TTITLE10=I'm Beginning To See The Light
EXTD=
EXTT0=
EXTT1=
EXTT2=
EXTT3=
EXTT4=
EXTT5=
EXTT6=
EXTT7=
EXTT8=
EXTT9=
EXTT10=
PLAYORDER=
